<?xml version="1.0" encoding="UTF-8"?>
<svg version="1.1" xmlns="http://www.w3.org/2000/svg" width="130" height="110">
<path d="M0 0 C3.33631221 2.27539285 5.73888617 4.60832925 8 8 C8.33 6.68 8.66 5.36 9 4 C9.99 4 10.98 4 12 4 C12.185625 5.093125 12.37125 6.18625 12.5625 7.3125 C13.57516528 10.9490498 13.57516528 10.9490498 15.69140625 12.1328125 C17.83650143 13.05926212 17.83650143 13.05926212 21 14 C21 14.66 21 15.32 21 16 C19.865625 16.37125 18.73125 16.7425 17.5625 17.125 C14.73811076 18.37325349 14.15791381 18.6762767 12.75 21.5625 C13.06285713 25.86428552 14.58969075 28.70764192 16.67578125 32.4375 C21.60341594 41.97298188 21.82733191 54.42716354 18.97265625 64.6953125 C13.70934149 76.09673117 4.35011493 82.34734192 -7 87 C-12.36458382 88.81775154 -17.3308843 89.42727733 -22.9375 89.6875 C-23.69740234 89.73455078 -24.45730469 89.78160156 -25.24023438 89.83007812 C-28.99994519 90.02592984 -32.47010572 89.99337139 -36.19140625 89.39453125 C-40.25095274 88.97400387 -42.27160953 89.48233766 -46 91 C-57.1343949 94.45297923 -67.09335231 94.4787189 -78 90 C-80.1171875 88.0546875 -80.1171875 88.0546875 -81.875 85.875 C-82.47054687 85.15054688 -83.06609375 84.42609375 -83.6796875 83.6796875 C-84.11539063 83.12539062 -84.55109375 82.57109375 -85 82 C-85.309375 82.61875 -85.61875 83.2375 -85.9375 83.875 C-86.625 85.25 -87.3125 86.625 -88 88 C-88.66 88 -89.32 88 -90 88 C-90.185625 86.906875 -90.37125 85.81375 -90.5625 84.6875 C-91.57516528 81.0509502 -91.57516528 81.0509502 -93.69140625 79.8671875 C-95.83650143 78.94073788 -95.83650143 78.94073788 -99 78 C-99 77.34 -99 76.68 -99 76 C-96.69 75.01 -94.38 74.02 -92 73 C-90.9680242 69.88147458 -90.54944357 67.27016765 -91 64 C-93.02946581 61.1829803 -95.32371432 58.8630989 -97.765625 56.3984375 C-100.8096072 53.13094612 -102.10120348 50.32545823 -103 46 C-103.185625 45.19175781 -103.37125 44.38351563 -103.5625 43.55078125 C-104.89158644 35.42199364 -102.71135607 28.26134883 -99 21 C-90.99162617 11.39586164 -80.56172101 8.2869943 -68.9375 5.25 C-67.50415246 4.8621702 -66.07120573 4.47285587 -64.63867188 4.08203125 C-60.76508813 3.03117668 -56.88570147 2.00530709 -53 1 C-52.30502411 0.82014053 -51.61004822 0.64028107 -50.89401245 0.45497131 C-46.35158631 -0.70388174 -41.90469283 -1.4972873 -37.25 -2.0625 C-32.59444168 -2.57832439 -32.59444168 -2.57832439 -28.0234375 -3.5390625 C-18.81499058 -5.6367396 -8.14992373 -4.80318699 0 0 Z M-26 -1 C-22 0 -22 0 -22 0 Z M-18 2 C-16.06532058 2.83986084 -14.12714871 3.67168027 -12.1875 4.5 C-11.10855469 4.9640625 -10.02960938 5.428125 -8.91796875 5.90625 C-6.05117976 7.17549303 -6.05117976 7.17549303 -3 7 C-2.67 7.99 -2.34 8.98 -2 10 C1.50294871 11.71567661 1.50294871 11.71567661 5 13 C5.33 12.01 5.66 11.02 6 10 C3.76020432 6.76223489 3.76020432 6.76223489 1 4 C0.34 4 -0.32 4 -1 4 C-1 3.34 -1 2.68 -1 2 C-7.44540392 -1.09379388 -12.00128413 -2.85549165 -18 2 Z M-22 0 C-18 1 -18 1 -18 1 Z M-87 68 C-87.14031566 70.92202417 -87.14031566 70.92202417 -86 74 C-83.46032588 75.46581614 -80.82914839 76.26532365 -78 77 C-80 78 -80 78 -83 79 C-80.98936665 84.11797579 -77.37867685 86.28513052 -72.625 88.75 C-64.00263681 91.74979556 -53.55942228 90.7949134 -45 88 C-45.87653039 85.69818539 -45.87653039 85.69818539 -48.75 84.875 C-51.70186896 84.08026605 -53.97219837 83.82189402 -57 84 C-57 83.34 -57 82.68 -57 82 C-57.96679688 81.63648437 -58.93359375 81.27296875 -59.9296875 80.8984375 C-67.05556441 78.16434525 -73.65061847 75.34397755 -80.046875 71.1015625 C-82.06178321 69.75437329 -82.06178321 69.75437329 -85 70 C-85 69.34 -85 68.68 -85 68 C-85.66 68 -86.32 68 -87 68 Z " fill="#D2B9AF" transform="translate(107,12)"/>
<path d="M0 0 C0 0.99 0 1.98 0 3 C0.495 3.495 0.495 3.495 1 4 C-1.73344147 6.83352171 -4.567107 9.29067639 -7.6875 11.6875 C-17.62947997 18.79148059 -17.62947997 18.79148059 -23 29 C-22.68197057 30.66965451 -22.35015049 32.33678518 -22 34 C-22.33 34.66 -22.66 35.32 -23 36 C-23.99 36 -24.98 36 -26 36 C-26.33 34.68 -26.66 33.36 -27 32 C-29.33294775 31.95758277 -31.66702567 31.95907063 -34 32 C-35.29633621 33.06645115 -35.29633621 33.06645115 -35.0625 35.5625 C-35.041875 36.366875 -35.02125 37.17125 -35 38 C-34.21753906 38.42152344 -33.43507813 38.84304687 -32.62890625 39.27734375 C-31.61699219 39.82519531 -30.60507812 40.37304688 -29.5625 40.9375 C-28.55316406 41.48277344 -27.54382813 42.02804688 -26.50390625 42.58984375 C-24 44 -24 44 -23 45 C-22.70370762 48.3332893 -22.64193667 50.36912652 -24.3125 53.3125 C-26.39999437 55.39999437 -28.1068971 55.95730866 -31.04296875 56.09765625 C-31.75066406 56.08605469 -32.45835938 56.07445312 -33.1875 56.0625 C-34.445625 56.041875 -35.70375 56.02125 -37 56 C-35.79157144 60.43090471 -34.48331435 62.98112756 -31 66 C-32.98 65.67 -34.96 65.34 -37 65 C-36.59995382 67.95978632 -36.59995382 67.95978632 -35 71 C-32.44526606 72.42335176 -29.81962538 73.25247141 -27 74 C-29 76 -29 76 -31.9375 76.125 C-35.07542569 76.63707368 -35.07542569 76.63707368 -36.05859375 78.83984375 C-36.80721579 80.87795831 -37.45440486 82.89898012 -38 85 C-38.66 85 -39.32 85 -40 85 C-40.185625 83.906875 -40.37125 82.81375 -40.5625 81.6875 C-41.57516528 78.0509502 -41.57516528 78.0509502 -43.69140625 76.8671875 C-45.83650143 75.94073788 -45.83650143 75.94073788 -49 75 C-49 74.34 -49 73.68 -49 73 C-46.69 72.01 -44.38 71.02 -42 70 C-40.9680242 66.88147458 -40.54944357 64.27016765 -41 61 C-43.02946581 58.1829803 -45.32371432 55.8630989 -47.765625 53.3984375 C-50.8096072 50.13094612 -52.10120348 47.32545823 -53 43 C-53.185625 42.19175781 -53.37125 41.38351563 -53.5625 40.55078125 C-54.89158644 32.42199364 -52.71135607 25.26134883 -49 18 C-40.71119043 8.75325417 -33.20522059 6.15379648 -21 5 C-15.67123873 4.44045605 -15.67123873 4.44045605 -11 2 C-9.0625 1.3671875 -9.0625 1.3671875 -7 0.875 C-6.319375 0.70742187 -5.63875 0.53984375 -4.9375 0.3671875 C-3 0 -3 0 0 0 Z " fill="#C9A7B4" transform="translate(57,15)"/>
<path d="M0 0 C5.5170099 3.6780066 7.47667822 10.7269583 9 17 C10.51690448 27.19529024 10.32928228 37.51593142 4.88671875 46.5234375 C-2.45906851 56.16573382 -13.16908239 62.42806139 -25 65 C-25.66 65 -26.32 65 -27 65 C-27 64.34 -27 63.68 -27 63 C-28.11375 63.185625 -29.2275 63.37125 -30.375 63.5625 C-35.34064255 64.20322807 -40.06061137 63.65791037 -45 63 C-43.6153715 58.84611451 -40.69944175 57.66178812 -37.125 55.5 C-33.44403322 53.24680215 -30.01804294 51.11797813 -27 48 C-26.34 48 -25.68 48 -25 48 C-25 47.34 -25 46.68 -25 46 C-23.125 43.875 -23.125 43.875 -21 42 C-20.34 42 -19.68 42 -19 42 C-18.7525 41.443125 -18.505 40.88625 -18.25 40.3125 C-17.8375 39.549375 -17.425 38.78625 -17 38 C-16.2575 36.6078125 -16.2575 36.6078125 -15.5 35.1875 C-13 33 -13 33 -10.65625 32.94140625 C-8.90997967 33.14428177 -7.16865841 33.39700553 -5.4375 33.703125 C-2.95798115 34.00511768 -1.35530681 33.76329387 1 33 C1 32.34 1 31.68 1 31 C0.01 31.66 -0.98 32.32 -2 33 C-5.0625 33.25 -5.0625 33.25 -8 33 C-10.76223278 30.23776722 -10.57856291 27.79293383 -11 24 C-6.71 24 -2.42 24 2 24 C0.68702878 18.01461763 0.68702878 18.01461763 -3 16 C-2.69075786 13.89535207 -2.3774944 11.7912947 -2.0625 9.6875 C-1.88847656 8.51574219 -1.71445313 7.34398437 -1.53515625 6.13671875 C-1 3 -1 3 0 0 Z " fill="#DAC5B0" transform="translate(118,36)"/>
<path d="M0 0 C1.98 0 3.96 0 6 0 C6 9.24 6 18.48 6 28 C4.68 27.67 3.36 27.34 2 27 C1.01 27.66 0.02 28.32 -1 29 C-4.42965362 29.43782812 -6.33240201 29.36893573 -9.375 27.6875 C-12.0074133 23.33389339 -11.70523125 18.94412119 -11 14 C-9.625 11.3125 -9.625 11.3125 -7 10 C-3.63806353 9.6996389 -0.36437225 9.76885992 3 10 C3 7.03 3 4.06 3 1 C2.01 0.67 1.02 0.34 0 0 Z " fill="#080506" transform="translate(72,42)"/>
<path d="M0 0 C4.01771435 0.38631869 5.53551717 1.35850398 8.25 4.3125 C8.25 5.9625 8.25 7.6125 8.25 9.3125 C3.96 9.3125 -0.33 9.3125 -4.75 9.3125 C-3.76 11.9525 -2.77 14.5925 -1.75 17.3125 C1.59252724 17.38677838 4.0535914 17.37796953 7.25 16.3125 C7.25 16.9725 7.25 17.6325 7.25 18.3125 C3.83459721 20.41428633 1.22748585 20.88071226 -2.75 20.3125 C-6.59128305 17.06874987 -8.55779972 15.01026915 -9.125 10 C-8.65786625 5.40651813 -7.22959782 4.19802015 -3.75 1.3125 C-2.75 0.3125 -2.75 0.3125 0 0 Z " fill="#37302C" transform="translate(111.75,50.6875)"/>
<path d="M0 0 C1.051875 -0.00386719 1.051875 -0.00386719 2.125 -0.0078125 C4 0.125 4 0.125 6 1.125 C6 3.105 6 5.085 6 7.125 C5.34 7.125 4.68 7.125 4 7.125 C3.67 5.805 3.34 4.485 3 3.125 C0.66705225 3.08258277 -1.66702567 3.08407063 -4 3.125 C-5.29633621 4.19145115 -5.29633621 4.19145115 -5.0625 6.6875 C-5.041875 7.491875 -5.02125 8.29625 -5 9.125 C-4.21753906 9.54652344 -3.43507813 9.96804687 -2.62890625 10.40234375 C-1.61699219 10.95019531 -0.60507812 11.49804688 0.4375 12.0625 C1.44683594 12.60777344 2.45617187 13.15304688 3.49609375 13.71484375 C6 15.125 6 15.125 7 16.125 C7.27761844 19.24820744 7.24683021 21.51615214 6.0625 24.4375 C2.76002132 27.13952801 -0.82728248 27.19088501 -5 27.125 C-8 26.4375 -8 26.4375 -10 25.125 C-10.8125 23 -10.8125 23 -11 21.125 C-10.01 20.795 -9.02 20.465 -8 20.125 C-7.34 21.445 -6.68 22.765 -6 24.125 C-3.36 24.125 -0.72 24.125 2 24.125 C2.33 22.475 2.66 20.825 3 19.125 C2.14535156 18.70089844 1.29070313 18.27679688 0.41015625 17.83984375 C-8.62707161 13.04178228 -8.62707161 13.04178228 -10.5 8.4375 C-9.91607534 4.56899912 -9.10167159 3.42909889 -6 1.125 C-3.75487738 0.00243869 -2.48543351 -0.00913762 0 0 Z " fill="#161012" transform="translate(27,43.875)"/>
<path d="M0 0 C2.31 0 4.62 0 7 0 C7.33 5.28 7.66 10.56 8 16 C12.63019987 15.5547002 12.63019987 15.5547002 14 14 C14.23481693 11.81707226 14.41363323 9.62796826 14.5625 7.4375 C14.64628906 6.23996094 14.73007812 5.04242188 14.81640625 3.80859375 C14.87699219 2.88175781 14.93757813 1.95492187 15 1 C14.01 0.67 13.02 0.34 12 0 C14.31 0 16.62 0 19 0 C19 5.61 19 11.22 19 17 C20.32 17 21.64 17 23 17 C23 17.66 23 18.32 23 19 C20.36 19 17.72 19 15 19 C15 18.34 15 17.68 15 17 C14.01 17.66 13.02 18.32 12 19 C6.86300543 19.5351036 6.86300543 19.5351036 4.32421875 17.9609375 C2.2829023 14.93810311 2.68469658 11.82217858 2.8125 8.3125 C2.83280273 7.2596582 2.83280273 7.2596582 2.85351562 6.18554688 C2.88879818 4.45670171 2.94260417 2.72825235 3 1 C2.01 0.67 1.02 0.34 0 0 Z " fill="#1B1517" transform="translate(36,52)"/>
<path d="M0 0 C1.9375 1.25 1.9375 1.25 3 3 C3 4.65 3 6.3 3 8 C-0.96 8 -4.92 8 -9 8 C-8.81535634 12.34184202 -8.81535634 12.34184202 -7 16 C-3.63370749 16.14636054 -1.21580438 16.07193479 2 15 C1.67 15.99 1.34 16.98 1 18 C-3.69537275 19.0331866 -6.80610727 19.70658957 -11.0625 17.1875 C-13.75566423 12.75681046 -14.15826287 9.0549901 -13 4 C-9.81118283 -1.15375732 -5.55497474 -1.67697351 0 0 Z " fill="#463D36" transform="translate(97,52)"/>
<path d="M0 0 C7.86017372 0.3477953 14.65616944 2.24476879 22 5 C22.71800781 5.26039062 23.43601562 5.52078125 24.17578125 5.7890625 C27.94406123 7.25764271 30.2630355 9.06753804 33 12 C33.99 12.33 34.98 12.66 36 13 C36 13.66 36 14.32 36 15 C35.34 15 34.68 15 34 15 C34 15.66 34 16.32 34 17 C34.969375 17.144375 35.93875 17.28875 36.9375 17.4375 C40 18 40 18 41 19 C41.47323944 25.38873239 41.47323944 25.38873239 39.5 27.9375 C39.005 28.288125 38.51 28.63875 38 29 C36.11608215 25.73454239 35.50712033 22.71888239 35 19 C32.69 18.67 30.38 18.34 28 18 C27.835 16.9275 27.67 15.855 27.5 14.75 C26.81505499 12.34054806 26.35568187 11.26655316 24.33203125 9.75 C22.25450375 8.72128232 20.15740719 7.84712869 18 7 C16.9275 6.46375 15.855 5.9275 14.75 5.375 C9.60802824 3.48961036 4.40888648 2.75493489 -1 2 C-0.67 1.34 -0.34 0.68 0 0 Z " fill="#EAE5CA" transform="translate(75,11)"/>
<path d="M0 0 C0.66 0 1.32 0 2 0 C2.33 1.093125 2.66 2.18625 3 3.3125 C4.02705124 5.78744299 4.62850886 6.78751 6.98046875 8.1328125 C8.95419645 8.85243711 10.97629466 9.43601655 13 10 C11 12 11 12 8.0625 12.125 C4.92457431 12.63707368 4.92457431 12.63707368 3.94140625 14.83984375 C3.19278421 16.87795831 2.54559514 18.89898012 2 21 C1.34 21 0.68 21 0 21 C-0.185625 19.906875 -0.37125 18.81375 -0.5625 17.6875 C-1.57516528 14.0509502 -1.57516528 14.0509502 -3.69140625 12.8671875 C-5.83650143 11.94073788 -5.83650143 11.94073788 -9 11 C-9 10.34 -9 9.68 -9 9 C-7.88625 8.62875 -6.7725 8.2575 -5.625 7.875 C-2.38621238 6.5205979 -2.10727559 6.23787197 -0.5625 2.8125 C-0.376875 1.884375 -0.19125 0.95625 0 0 Z " fill="#323131" transform="translate(17,79)"/>
<path d="M0 0 C3.07921132 -0.25660094 5.21136993 -0.39431504 8 1 C8.08107583 2.93681161 8.13922475 4.8745934 8.1875 6.8125 C8.22230469 7.89144531 8.25710937 8.97039063 8.29296875 10.08203125 C8 13 8 13 6.68359375 14.87109375 C4.13720022 16.57853628 1.97945301 16.25908287 -1 16 C-2.79904778 14.20095222 -2.17296543 11.54936549 -2.1875 9.125 C-2.20167969 8.05507813 -2.21585937 6.98515625 -2.23046875 5.8828125 C-2 3 -2 3 0 0 Z " fill="#C7AFA9" transform="translate(67,53)"/>
<path d="M0 0 C0.66 0 1.32 0 2 0 C2.66 0.9075 3.32 1.815 4 2.75 C7.52352219 7.04747504 11.64331435 8.78036653 17 10 C24.74845815 10.647729 31.61777504 10.3691351 39 8 C37.68 7.34 36.36 6.68 35 6 C41.0546875 5.8046875 41.0546875 5.8046875 43 6 C45 8 45 8 45 10 C31.68297972 14.52500838 20.44727817 16.46696984 7 11 C4.8828125 9.16015625 4.8828125 9.16015625 3.125 7.0625 C2.52945312 6.37285156 1.93390625 5.68320313 1.3203125 4.97265625 C0 3 0 3 0 0 Z " fill="#C3BEC0" transform="translate(22,91)"/>
<path d="M0 0 C0.66 0 1.32 0 2 0 C2.185625 0.928125 2.37125 1.85625 2.5625 2.8125 C4.10727559 6.23787197 4.38621238 6.5205979 7.625 7.875 C8.73875 8.24625 9.8525 8.6175 11 9 C11 9.66 11 10.32 11 11 C9.88625 11.391875 8.7725 11.78375 7.625 12.1875 C4.68039334 13.42482967 4.14117455 13.73606497 2.5625 16.6875 C2.376875 17.450625 2.19125 18.21375 2 19 C1.34 19 0.68 19 0 19 C-0.20625 18.05125 -0.4125 17.1025 -0.625 16.125 C-1.70833333 12.70833333 -1.70833333 12.70833333 -5.125 11.625 C-6.07375 11.41875 -7.0225 11.2125 -8 11 C-8 10.34 -8 9.68 -8 9 C-6.02 8.67 -4.04 8.34 -2 8 C-1.34 5.36 -0.68 2.72 0 0 Z " fill="#312E2E" transform="translate(117,17)"/>
<path d="M0 0 C5.50001791 3.66667861 7.51221108 10.72993941 9 17 C9.46142386 20.48788083 9.60570129 23.92120979 9.625 27.4375 C9.6355542 28.26491699 9.6461084 29.09233398 9.65698242 29.94482422 C9.5207141 35.91061523 7.97473362 39.83865939 5 45 C3.47849842 41.95699684 3.76100607 39.345915 4 36 C4.99 35.34 5.98 34.68 7 34 C8.23439974 26.46048 7.04665779 17.99602901 4 11 C3.01 10.34 2.02 9.68 1 9 C0.34 10.32 -0.32 11.64 -1 13 C-2.07310858 9.72814447 -1.89263102 7.57052408 -1.0625 4.25 C-0.86785156 3.45078125 -0.67320313 2.6515625 -0.47265625 1.828125 C-0.31667969 1.22484375 -0.16070312 0.6215625 0 0 Z " fill="#EBE4C6" transform="translate(118,36)"/>
<path d="M0 0 C-2.76361547 2.76361547 -6.11332497 4.03114012 -9.625 5.625 C-10.33140625 5.94984375 -11.0378125 6.2746875 -11.765625 6.609375 C-13.50860545 7.41020386 -15.25406965 8.20562293 -17 9 C-17 8.34 -17 7.68 -17 7 C-16.34 7 -15.68 7 -15 7 C-15 6.01 -15 5.02 -15 4 C-15.89203125 4.27714844 -16.7840625 4.55429688 -17.703125 4.83984375 C-18.87359375 5.20207031 -20.0440625 5.56429688 -21.25 5.9375 C-22.41015625 6.29714844 -23.5703125 6.65679688 -24.765625 7.02734375 C-27.17373531 7.75152185 -29.55510852 8.42230412 -32 9 C-32.70898438 9.17660156 -33.41796875 9.35320313 -34.1484375 9.53515625 C-38.5245908 10.57161361 -42.46790143 11.23241531 -47 11 C-43.42814445 9.00260304 -39.66050449 7.92717031 -35.7421875 6.8359375 C-34.68754807 6.54053574 -34.68754807 6.54053574 -33.61160278 6.23916626 C-32.12454091 5.82503604 -30.63680071 5.41333488 -29.1484375 5.00390625 C-26.90004163 4.38192732 -24.65724489 3.74204881 -22.4140625 3.1015625 C-14.83163678 0.98419873 -7.94183044 -0.55042389 0 0 Z " fill="#E7DEC9" transform="translate(72,11)"/>
<path d="M0 0 C7.35073747 1.18136852 14.01660513 4.28233278 18.76171875 10.1953125 C19.17035156 10.79085938 19.57898438 11.38640625 20 12 C20.33 10.68 20.66 9.36 21 8 C21.99 8.33 22.98 8.66 24 9 C23.34 9 22.68 9 22 9 C22.04125 9.763125 22.0825 10.52625 22.125 11.3125 C22 14 22 14 20 17 C19.01 16.67 18.02 16.34 17 16 C16.5359375 14.824375 16.5359375 14.824375 16.0625 13.625 C14.84755058 10.62336025 13.59335789 9.81535052 11 8 C11 7.34 11 6.68 11 6 C8.17359028 5.2420083 5.40527039 4.72323446 2.5 4.375 C1.37078125 4.23191406 1.37078125 4.23191406 0.21875 4.0859375 C-2.00372374 3.89495753 -2.00372374 3.89495753 -4.109375 4.53515625 C-6.8450111 5.20776099 -8.5200591 4.1710832 -11 3 C-11 2.67 -11 2.34 -11 2 C-10.28972656 1.93941406 -9.57945313 1.87882813 -8.84765625 1.81640625 C-7.46900391 1.69072266 -7.46900391 1.69072266 -6.0625 1.5625 C-5.14597656 1.48128906 -4.22945313 1.40007813 -3.28515625 1.31640625 C-1.03840268 1.23955024 -1.03840268 1.23955024 0 0 Z " fill="#BFBBBD" transform="translate(95,8)"/>
<path d="M0 0 C1.65581725 0.70620155 3.29951386 1.44087238 4.9375 2.1875 C5.85402344 2.59355469 6.77054688 2.99960937 7.71484375 3.41796875 C10 5 10 5 10.94140625 7.55078125 C10.96074219 8.35902344 10.98007812 9.16726562 11 10 C9 12 9 12 7.0546875 12.1953125 C5.03645833 12.13020833 3.01822917 12.06510417 1 12 C-0.76827834 9.2955743 -1.01886461 8.15720512 -0.625 4.875 C-0.41875 3.92625 -0.2125 2.9775 0 2 C0 1.34 0 0.68 0 0 Z " fill="#B48DAA" transform="translate(20,57)"/>
<path d="M0 0 C-2 2 -2 2 -5.125 2.125 C-6.07375 2.08375 -7.0225 2.0425 -8 2 C-9.38226016 4.76452033 -9.09525387 7.0461363 -9.0625 10.125 C-9.04896484 11.76855469 -9.04896484 11.76855469 -9.03515625 13.4453125 C-9.02355469 14.28835937 -9.01195313 15.13140625 -9 16 C-4.85906302 16.20970559 -4.85906302 16.20970559 -1 15 C-2 18 -2 18 -4 19 C-7.39011269 19.36849051 -9.36640438 19.35014495 -12.375 17.6875 C-15.0074133 13.33389339 -14.70523125 8.94412119 -14 4 C-11.15236309 -1.56583577 -5.49997009 -0.37786054 0 0 Z " fill="#211B1B" transform="translate(75,52)"/>
<path d="M0 0 C2.5 1.375 2.5 1.375 5 3 C5 3.66 5 4.32 5 5 C5.969375 5.144375 6.93875 5.28875 7.9375 5.4375 C11 6 11 6 12 7 C12.47323944 13.38873239 12.47323944 13.38873239 10.5 15.9375 C10.005 16.288125 9.51 16.63875 9 17 C7.11608215 13.73454239 6.50712033 10.71888239 6 7 C3.69 6.67 1.38 6.34 -1 6 C-1.042721 4.33388095 -1.04063832 2.66617115 -1 1 C-0.67 0.67 -0.34 0.34 0 0 Z " fill="#ECE7AE" transform="translate(104,23)"/>
<path d="M0 0 C2.31 0 4.62 0 7 0 C7 5.61 7 11.22 7 17 C7.99 17.33 8.98 17.66 10 18 C8.02 18 6.04 18 4 18 C2.86519473 14.39006828 2.89984233 11.0157673 2.9375 7.25 C2.94652344 6.07953125 2.95554688 4.9090625 2.96484375 3.703125 C2.97644531 2.81109375 2.98804688 1.9190625 3 1 C2.01 0.67 1.02 0.34 0 0 Z " fill="#1A1415" transform="translate(48,52)"/>
<path d="M0 0 C1.670625 0.061875 1.670625 0.061875 3.375 0.125 C2.42566101 3.47933109 1.47751165 6.81746505 0.375 10.125 C-4.5 8.25 -4.5 8.25 -5.625 7.125 C-5.8125 4.6875 -5.8125 4.6875 -5.625 2.125 C-3.625 0.125 -3.625 0.125 0 0 Z " fill="#BB99AC" transform="translate(26.625,45.875)"/>
<path d="M0 0 C0.33 0 0.66 0 1 0 C1.13277344 0.78246094 1.26554687 1.56492188 1.40234375 2.37109375 C1.57894531 3.38300781 1.75554687 4.39492188 1.9375 5.4375 C2.11152344 6.44683594 2.28554687 7.45617188 2.46484375 8.49609375 C2.74751097 10.9287438 2.74751097 10.9287438 4 12 C7.36629251 12.14636054 9.78419562 12.07193479 13 11 C12.67 11.99 12.34 12.98 12 14 C4.14975493 15.72739597 4.14975493 15.72739597 -0.0625 13.0625 C-2.67872147 8.9271822 -2.55394027 6.82719375 -2 2 C-1.34 1.34 -0.68 0.68 0 0 Z " fill="#27211F" transform="translate(86,56)"/>
<path d="M0 0 C0.99 0 1.98 0 3 0 C3 1.32 3 2.64 3 4 C3.66 4.33 4.32 4.66 5 5 C4.67 8.63 4.34 12.26 4 16 C3.34 15.01 2.68 14.02 2 13 C1.01 12.67 0.02 12.34 -1 12 C-0.67 11.67 -0.34 11.34 0 11 C0.07226502 9.14712498 0.0838122 7.29166122 0.0625 5.4375 C0.05347656 4.42558594 0.04445313 3.41367187 0.03515625 2.37109375 C0.02355469 1.58863281 0.01195313 0.80617187 0 0 Z " fill="#E0D2AC" transform="translate(99,49)"/>
<path d="M0 0 C-0.33 0.66 -0.66 1.32 -1 2 C-2.94946289 2.41064453 -2.94946289 2.41064453 -5.47265625 2.6328125 C-6.37177734 2.71660156 -7.27089844 2.80039063 -8.19726562 2.88671875 C-9.14279297 2.96535156 -10.08832031 3.04398438 -11.0625 3.125 C-12.01189453 3.21136719 -12.96128906 3.29773438 -13.93945312 3.38671875 C-16.29235092 3.59954368 -18.64568595 3.80357031 -21 4 C-21 3.34 -21 2.68 -21 2 C-14.11997829 -0.62096065 -7.27823961 -0.18170362 0 0 Z " fill="#B6AFB3" transform="translate(95,8)"/>
<path d="M0 0 C0.83595703 0.00451172 1.67191406 0.00902344 2.53320312 0.01367188 C4.58466649 0.02539452 6.63609273 0.04332797 8.6875 0.0625 C8.6875 0.7225 8.6875 1.3825 8.6875 2.0625 C6.16708689 2.25917089 3.64661728 2.44504317 1.125 2.625 C0.42052734 2.68107422 -0.28394531 2.73714844 -1.00976562 2.79492188 C-5.62688431 3.11407754 -9.7533752 2.87128035 -14.3125 2.0625 C-14.3125 1.7325 -14.3125 1.4025 -14.3125 1.0625 C-9.54157044 -0.17152862 -4.88780554 -0.05015112 0 0 Z " fill="#D1C1C8" transform="translate(82.3125,98.9375)"/>
<path d="M0 0 C0.66 0 1.32 0 2 0 C2.66 1.32 3.32 2.64 4 4 C6.97 4 9.94 4 13 4 C13.33 4.66 13.66 5.32 14 6 C3.98434247 7.61472474 3.98434247 7.61472474 0 5 C-0.875 2.9375 -0.875 2.9375 -1 1 C-0.67 0.67 -0.34 0.34 0 0 Z " fill="#362A2F" transform="translate(17,64)"/>
<path d="M0 0 C0.33 0.99 0.66 1.98 1 3 C-0.45217676 4.50596108 -1.91192861 6.00462104 -3.375 7.5 C-4.18710938 8.3353125 -4.99921875 9.170625 -5.8359375 10.03125 C-8 12 -8 12 -10 12 C-10 9 -10 9 -7.8125 6.5625 C-5.28225355 4.25716434 -2.70944196 2.09014094 0 0 Z " fill="#D0BDC4" transform="translate(18,24)"/>
<path d="M0 0 C1.2065625 0.0309375 1.2065625 0.0309375 2.4375 0.0625 C2.7675 1.7125 3.0975 3.3625 3.4375 5.0625 C0.7975 5.0625 -1.8425 5.0625 -4.5625 5.0625 C-3.43829114 0.08386076 -3.43829114 0.08386076 0 0 Z " fill="#D1C5A0" transform="translate(112.5625,52.9375)"/>
<path d="M0 0 C1.2065625 0.0309375 1.2065625 0.0309375 2.4375 0.0625 C2.7675 1.7125 3.0975 3.3625 3.4375 5.0625 C0.7975 5.0625 -1.8425 5.0625 -4.5625 5.0625 C-3.43829114 0.08386076 -3.43829114 0.08386076 0 0 Z " fill="#D4C3AA" transform="translate(92.5625,52.9375)"/>
<path d="M0 0 C0.66 0.33 1.32 0.66 2 1 C2 2.98 2 4.96 2 7 C1.34 7 0.68 7 0 7 C-0.33 5.68 -0.66 4.36 -1 3 C-5.65052872 2.73067479 -5.65052872 2.73067479 -10 4 C-10.66 3.34 -11.32 2.68 -12 2 C-8.08488397 -0.61007735 -4.5480334 -0.22006613 0 0 Z " fill="#44363B" transform="translate(31,44)"/>
<path d="M0 0 C-2.55184738 3.20077077 -4.84219501 3.60319096 -8.8125 4.1875 C-9.82957031 4.34605469 -10.84664062 4.50460938 -11.89453125 4.66796875 C-14.95679165 4.99538024 -17.92296793 5.05979285 -21 5 C-14.6914269 1.59396288 -7.18896416 -0.58288899 0 0 Z " fill="#DACCC5" transform="translate(46,17)"/>
<path d="M0 0 C2.38564077 0.57584432 4.66682784 1.22227595 7 2 C7 2.66 7 3.32 7 4 C4.03 4.66 1.06 5.32 -2 6 C-2.33 5.01 -2.66 4.02 -3 3 C-2.01 2.67 -1.02 2.34 0 2 C0 1.34 0 0.68 0 0 Z " fill="#E4DBA8" transform="translate(107,47)"/>
<path d="M0 0 C0.66 0 1.32 0 2 0 C3.24588984 1.47539586 4.48812639 2.95449544 5.69140625 4.46484375 C7.25981645 6.3047996 8.99275368 7.66183579 11 9 C10.01 9.33 9.02 9.66 8 10 C4.42869967 7.95925695 2.2949791 6.44246864 0 3 C0 2.01 0 1.02 0 0 Z " fill="#BAB8B9" transform="translate(22,91)"/>
<path d="M0 0 C0.66 0 1.32 0 2 0 C2 1.32 2 2.64 2 4 C5.465 3.505 5.465 3.505 9 3 C9 3.66 9 4.32 9 5 C6.36 5 3.72 5 1 5 C1 4.34 1 3.68 1 3 C0.01 3.66 -0.98 4.32 -2 5 C-5.1875 5.125 -5.1875 5.125 -8 5 C-5.77077045 2.77077045 -3.90864722 2.11871047 -1 1 C-0.67 0.67 -0.34 0.34 0 0 Z " fill="#6A565F" transform="translate(50,66)"/>
<path d="M0 0 C0.99 0.33 1.98 0.66 3 1 C2.34 1 1.68 1 1 1 C1.061875 2.1446875 1.061875 2.1446875 1.125 3.3125 C1 6 1 6 -1 9 C-1.99 8.67 -2.98 8.34 -4 8 C-4.33 5.69 -4.66 3.38 -5 1 C-4.34 1 -3.68 1 -3 1 C-2.34 1.99 -1.68 2.98 -1 4 C-0.67 2.68 -0.34 1.36 0 0 Z " fill="#B4B1B1" transform="translate(116,16)"/>
<path d="M0 0 C4.38296556 0.48699617 6.03183648 1.83395891 9 5 C9.99 5.33 10.98 5.66 12 6 C12 6.66 12 7.32 12 8 C11.443125 7.855625 10.88625 7.71125 10.3125 7.5625 C7.88615805 6.97230872 5.45093655 6.476571 3 6 C2.67 4.68 2.34 3.36 2 2 C1.34 2 0.68 2 0 2 C0 1.34 0 0.68 0 0 Z " fill="#EFEAD2" transform="translate(99,18)"/>
<path d="M0 0 C1.32 0.33 2.64 0.66 4 1 C3.34 1 2.68 1 2 1 C3.20842856 5.43090471 4.51668565 7.98112756 8 11 C6.35 10.67 4.7 10.34 3 10 C2.67 9.01 2.34 8.02 2 7 C1.34 7 0.68 7 0 7 C0 4.69 0 2.38 0 0 Z " fill="#AA87A6" transform="translate(18,70)"/>
<path d="M0 0 C0.66 0 1.32 0 2 0 C2.33 4.29 2.66 8.58 3 13 C2.01 13.33 1.02 13.66 0 14 C-0.19532961 12.2300132 -0.38098882 10.45895721 -0.5625 8.6875 C-0.66691406 7.70136719 -0.77132813 6.71523438 -0.87890625 5.69921875 C-1 3 -1 3 0 0 Z " fill="#C7B0C2" transform="translate(4,44)"/>
<path d="M0 0 C0.66 0 1.32 0 2 0 C3.6875 2.375 3.6875 2.375 5 5 C4.67 5.66 4.34 6.32 4 7 C3.34 6.67 2.68 6.34 2 6 C1.34 7.32 0.68 8.64 0 10 C-1.2380014 6.42355152 -0.74926071 3.66305234 0 0 Z " fill="#ECE6A9" transform="translate(117,39)"/>
<path d="M0 0 C6.35051546 -0.36637589 6.35051546 -0.36637589 9.4375 1.375 C11 3 11 3 11 5 C11.66 5.33 12.32 5.66 13 6 C9.88452559 5.32116957 7.14862279 4.25893098 4.25 2.9375 C3.45078125 2.57527344 2.6515625 2.21304687 1.828125 1.83984375 C1.22484375 1.56269531 0.6215625 1.28554688 0 1 C0 0.67 0 0.34 0 0 Z " fill="#EDE9C0" transform="translate(88,15)"/>
<path d="M0 0 C2.97 0.99 5.94 1.98 9 3 C7 5 7 5 3.875 5.125 C2.451875 5.063125 2.451875 5.063125 1 5 C0.67 3.35 0.34 1.7 0 0 Z " fill="#646363" transform="translate(21,86)"/>
<path d="M0 0 C0.66 0.33 1.32 0.66 2 1 C5.37822416 1.14375422 7.77390955 1.07536348 11 0 C11 0.66 11 1.32 11 2 C7.60535554 4.08901197 4.95158471 4.34361606 1 4 C0.34 3.34 -0.32 2.68 -1 2 C-0.67 1.34 -0.34 0.68 0 0 Z " fill="#584D46" transform="translate(108,67)"/>
<path d="M0 0 C0.66 0 1.32 0 2 0 C2.66 2.31 3.32 4.62 4 7 C2.68 6.34 1.36 5.68 0 5 C-0.33 5.99 -0.66 6.98 -1 8 C-1.66 7.67 -2.32 7.34 -3 7 C-2.01 4.69 -1.02 2.38 0 0 Z " fill="#4F4E4E" transform="translate(17,79)"/>
<path d="M0 0 C0.90492187 0.02320313 1.80984375 0.04640625 2.7421875 0.0703125 C4.10730469 0.09738281 4.10730469 0.09738281 5.5 0.125 C6.19867188 0.14820313 6.89734375 0.17140625 7.6171875 0.1953125 C6.9571875 0.8553125 6.2971875 1.5153125 5.6171875 2.1953125 C3.6171875 2.1953125 1.6171875 2.1953125 -0.3828125 2.1953125 C-1.0428125 2.8553125 -1.7028125 3.5153125 -2.3828125 4.1953125 C-3.70028574 4.89279833 -5.03195443 5.56491207 -6.3828125 6.1953125 C-3.63053977 0.29758523 -3.63053977 0.29758523 0 0 Z " fill="#372E2B" transform="translate(67.3828125,51.8046875)"/>
<path d="M0 0 C4.875 0.875 4.875 0.875 6 2 C6.04063832 3.66617115 6.042721 5.33388095 6 7 C5.01 7 4.02 7 3 7 C2.814375 5.824375 2.814375 5.824375 2.625 4.625 C2.20882007 1.85942178 2.20882007 1.85942178 0 0 Z " fill="#181412" transform="translate(113,52)"/>
<path d="M0 0 C0.66 0.33 1.32 0.66 2 1 C1.01 3.97 0.02 6.94 -1 10 C-2.32 9.34 -3.64 8.68 -5 8 C-4.34 8 -3.68 8 -3 8 C-2.690625 7.05125 -2.38125 6.1025 -2.0625 5.125 C-1 2 -1 2 0 0 Z " fill="#A38595" transform="translate(28,46)"/>
<path d="M0 0 C3.63 0 7.26 0 11 0 C9.515 1.485 9.515 1.485 8 3 C4.375 2.8125 4.375 2.8125 1 2 C0.67 1.34 0.34 0.68 0 0 Z " fill="#F7F6F6" transform="translate(84,10)"/>
<path d="M0 0 C3.3 0.33 6.6 0.66 10 1 C9.67 1.99 9.34 2.98 9 4 C4.545 3.01 4.545 3.01 0 2 C0 1.34 0 0.68 0 0 Z " fill="#D0CDCE" transform="translate(29,100)"/>
<path d="M0 0 C3.875 0.875 3.875 0.875 5 2 C5.04063832 3.66617115 5.042721 5.33388095 5 7 C4.01 7 3.02 7 2 7 C1.34 4.69 0.68 2.38 0 0 Z " fill="#181312" transform="translate(94,52)"/>
<path d="M0 0 C1.65 0 3.3 0 5 0 C5 0.66 5 1.32 5 2 C1.04 3.98 1.04 3.98 -3 6 C-3 5.34 -3 4.68 -3 4 C-2.34 4 -1.68 4 -1 4 C-0.67 2.68 -0.34 1.36 0 0 Z " fill="#DFD1AB" transform="translate(58,14)"/>
<path d="M0 0 C3.63 0 7.26 0 11 0 C7.67788692 1.66105654 5.5322697 2.34931874 2 3 C1.01 3.495 1.01 3.495 0 4 C0 2.68 0 1.36 0 0 Z " fill="#D5C6B2" transform="translate(88,60)"/>
<path d="M0 0 C6.0546875 -0.1953125 6.0546875 -0.1953125 8 0 C10 2 10 2 10 4 C9.34 4 8.68 4 8 4 C8 3.34 8 2.68 8 2 C7.01 2.33 6.02 2.66 5 3 C2.3125 2.0625 2.3125 2.0625 0 1 C0 0.67 0 0.34 0 0 Z " fill="#D8CCD2" transform="translate(57,97)"/>
<path d="M0 0 C1.98 0 3.96 0 6 0 C5.01 0.33 4.02 0.66 3 1 C2.67 1.99 2.34 2.98 2 4 C1.01 4 0.02 4 -1 4 C-0.67 2.68 -0.34 1.36 0 0 Z " fill="#E3D6AB" transform="translate(111,60)"/>
<path d="" fill="#F8F8F8" transform="translate(0,0)"/>
</svg>
